<svg width="25" height="24" viewBox="0 0 25 24" fill="none" xmlns="http://www.w3.org/2000/svg">
    <path d="M20.1077 19.1937C19.7111 18.4166 19.1877 17.6875 18.5374 17.0373C15.2031 13.7029 9.79705 13.7029 6.46272 17.0373C5.81247 17.6875 5.28903 18.4166 4.8924 19.1937M1.5 12C1.5 5.92487 6.42487 0.999999 12.5 1C18.5751 1 23.5 5.92487 23.5 12C23.5 18.0751 18.5751 23 12.5 23C6.42487 23 1.5 18.0751 1.5 12ZM16.5 10C16.5 12.2091 14.7091 14 12.5 14C10.2909 14 8.5 12.2091 8.5 10C8.5 7.79086 10.2909 6 12.5 6C14.7091 6 16.5 7.79086 16.5 10Z"
          stroke="#6F6E6D" stroke-width="2"/>
</svg>
