<svg width="18" height="22" viewBox="0 0 18 22" fill="none" xmlns="http://www.w3.org/2000/svg">
    <path d="M12 7L8.14017 10.8893C7.99372 11.0369 7.75628 11.0369 7.60984 10.8893L6 9.26719M3 1H15C16.1046 1 17 1.89543 17 3V17.7639C17 19.2507 15.4354 20.2177 14.1056 19.5528L13.8944 19.4472C13.3314 19.1657 12.6686 19.1657 12.1056 19.4472L9.89443 20.5528C9.33137 20.8343 8.66863 20.8343 8.10557 20.5528L5.89443 19.4472C5.33137 19.1657 4.66863 19.1657 4.10557 19.4472L3.89443 19.5528C2.56462 20.2177 1 19.2507 1 17.7639V3C1 1.89543 1.89543 1 3 1Z"
          stroke="#6F6E6D" stroke-width="2" stroke-linecap="round"/>
</svg>
