<svg width="18" height="20" viewBox="0 0 18 20" fill="none" xmlns="http://www.w3.org/2000/svg">
    <path d="M8.99997 2V1M8.99997 19V6M8.99997 9H14.5858C14.851 9 15.1053 9.10536 15.2929 9.29289L16.2929 10.2929C16.6834 10.6834 16.6834 11.3166 16.2929 11.7071L15.2929 12.7071C15.1053 12.8946 14.851 13 14.5858 13H8.99997M8.99997 11H3.41418C3.14897 11 2.89461 11.1054 2.70708 11.2929L1.70708 12.2929C1.31655 12.6834 1.31655 13.3166 1.70708 13.7071L2.70708 14.7071C2.89461 14.8946 3.14897 15 3.41419 15H8.99997M15.2929 5.70711L16.2929 4.70711C16.6834 4.31658 16.6834 3.68342 16.2929 3.29289L15.2929 2.29289C15.1053 2.10536 14.851 2 14.5858 2L3.41418 2C3.14897 2 2.89461 2.10536 2.70708 2.29289L1.70708 3.29289C1.31655 3.68342 1.31655 4.31658 1.70708 4.70711L2.70708 5.70711C2.89461 5.89464 3.14897 6 3.41418 6L14.5858 6C14.851 6 15.1053 5.89464 15.2929 5.70711Z"
          stroke="#726D00" stroke-width="2" stroke-linecap="round"/>
</svg>
