<svg width="20" height="20" viewBox="0 0 20 20" fill="none" xmlns="http://www.w3.org/2000/svg">
    <path d="M18.8478 17.7654L17.9239 17.3827L18.8478 17.7654ZM18.8478 14.2346L17.9239 14.6173L18.8478 14.2346ZM4 15C3.44772 15 3 15.4477 3 16C3 16.5523 3.44772 17 4 17V15ZM13 17C13.5523 17 14 16.5523 14 16C14 15.4477 13.5523 15 13 15V17ZM11 8C11 8.55228 10.5523 9 10 9V11C11.6569 11 13 9.65685 13 8H11ZM10 9C9.44771 9 9 8.55228 9 8H7C7 9.65685 8.34315 11 10 11V9ZM9 8C9 7.44772 9.44771 7 10 7V5C8.34315 5 7 6.34315 7 8H9ZM10 7C10.5523 7 11 7.44772 11 8H13C13 6.34315 11.6569 5 10 5V7ZM4 8C4 4.68629 6.68629 2 10 2V0C5.58172 0 2 3.58172 2 8H4ZM10 2C13.3137 2 16 4.68629 16 8H18C18 3.58172 14.4183 0 10 0V2ZM16 8C16 9.63518 15.3472 11.1159 14.2858 12.1991L15.7142 13.5989C17.1272 12.157 18 10.1794 18 8H16ZM5.71424 12.1991C4.65279 11.1159 4 9.63518 4 8H2C2 10.1794 2.87283 12.157 4.28576 13.5989L5.71424 12.1991ZM4 14H16V12H4V14ZM16 18H4V20H16V18ZM4 18C3.52038 18 3.21074 17.9995 2.97376 17.9833C2.74576 17.9677 2.65893 17.9411 2.61732 17.9239L1.85195 19.7716C2.17788 19.9066 2.50779 19.9561 2.83762 19.9787C3.15846 20.0005 3.54774 20 4 20V18ZM0 16C0 16.4523 -0.000541568 16.8415 0.0213497 17.1624C0.0438537 17.4922 0.0933574 17.8221 0.228361 18.1481L2.07612 17.3827C2.05888 17.3411 2.03227 17.2542 2.01671 17.0262C2.00054 16.7893 2 16.4796 2 16H0ZM2.61732 17.9239C2.37229 17.8224 2.17761 17.6277 2.07612 17.3827L0.228361 18.1481C0.532843 18.8831 1.11687 19.4672 1.85195 19.7716L2.61732 17.9239ZM18 16C18 16.4796 17.9995 16.7893 17.9833 17.0262C17.9677 17.2542 17.9411 17.3411 17.9239 17.3827L19.7716 18.1481C19.9066 17.8221 19.9561 17.4922 19.9787 17.1624C20.0005 16.8415 20 16.4523 20 16H18ZM16 20C16.4523 20 16.8415 20.0005 17.1624 19.9787C17.4922 19.9561 17.8221 19.9066 18.1481 19.7716L17.3827 17.9239C17.3411 17.9411 17.2542 17.9677 17.0262 17.9833C16.7893 17.9995 16.4796 18 16 18V20ZM17.9239 17.3827C17.8224 17.6277 17.6277 17.8224 17.3827 17.9239L18.1481 19.7716C18.8831 19.4672 19.4672 18.8831 19.7716 18.1481L17.9239 17.3827ZM16 14C16.4796 14 16.7893 14.0005 17.0262 14.0167C17.2542 14.0323 17.3411 14.0589 17.3827 14.0761L18.1481 12.2284C17.8221 12.0934 17.4922 12.0439 17.1624 12.0213C16.8415 11.9995 16.4523 12 16 12V14ZM20 16C20 15.5477 20.0005 15.1585 19.9787 14.8376C19.9561 14.5078 19.9066 14.1779 19.7716 13.8519L17.9239 14.6173C17.9411 14.6589 17.9677 14.7458 17.9833 14.9738C17.9995 15.2107 18 15.5204 18 16H20ZM17.3827 14.0761C17.6277 14.1776 17.8224 14.3723 17.9239 14.6173L19.7716 13.8519C19.4672 13.1169 18.8831 12.5328 18.1481 12.2284L17.3827 14.0761ZM4 12C3.54774 12 3.15846 11.9995 2.83762 12.0213C2.50779 12.0439 2.17788 12.0934 1.85195 12.2284L2.61732 14.0761C2.65893 14.0589 2.74576 14.0323 2.97376 14.0167C3.21074 14.0005 3.52038 14 4 14V12ZM2 16C2 15.5204 2.00054 15.2107 2.01671 14.9738C2.03227 14.7458 2.05888 14.6589 2.07612 14.6173L0.228361 13.8519C0.0933575 14.1779 0.0438537 14.5078 0.0213497 14.8376C-0.000541568 15.1585 0 15.5477 0 16H2ZM1.85195 12.2284C1.11686 12.5328 0.532843 13.1169 0.228361 13.8519L2.07612 14.6173C2.17761 14.3723 2.37229 14.1776 2.61732 14.0761L1.85195 12.2284ZM4 17H13V15H4V17Z"
          fill="#005C57"/>
</svg>
