<svg width="23" height="20" viewBox="0 0 23 20" fill="none" xmlns="http://www.w3.org/2000/svg">
    <path d="M7.5 5C6.94772 5 6.5 5.44772 6.5 6C6.5 6.55228 6.94772 7 7.5 7V5ZM15.5 7C16.0523 7 16.5 6.55228 16.5 6C16.5 5.44772 16.0523 5 15.5 5V7ZM7.5 9C6.94772 9 6.5 9.44771 6.5 10C6.5 10.5523 6.94772 11 7.5 11V9ZM11.5 11C12.0523 11 12.5 10.5523 12.5 10C12.5 9.44771 12.0523 9 11.5 9V11ZM21.282 13.908L22.173 14.362L22.173 14.362L21.282 13.908ZM20.408 14.782L20.862 15.673L20.408 14.782ZM20.408 1.21799L20.862 0.326981V0.32698L20.408 1.21799ZM21.282 2.09202L22.173 1.63803V1.63803L21.282 2.09202ZM2.59202 1.21799L3.04601 2.10899H3.04601L2.59202 1.21799ZM1.71799 2.09202L2.60899 2.54601V2.54601L1.71799 2.09202ZM2.70734 18.3861L3.28426 19.2029L3.28437 19.2028L2.70734 18.3861ZM6.66989 15.5865L6.09287 14.7698L6.09286 14.7698L6.66989 15.5865ZM1.59027 18.4776L2.40973 17.9044L2.40973 17.9044L1.59027 18.4776ZM2.60335 18.4483L2.15661 17.5536L2.1566 17.5537L2.60335 18.4483ZM1.92692 18.6856L1.78076 19.6749H1.78076L1.92692 18.6856ZM2.66983 18.412L2.13068 17.5697L2.13054 17.5698L2.66983 18.412ZM2.64376 18.4276L2.15674 17.5542L2.15668 17.5542L2.64376 18.4276ZM7.76828 15.034L7.95176 16.017L7.95176 16.017L7.76828 15.034ZM7.30048 15.1825L7.71786 16.0913L7.71786 16.0913L7.30048 15.1825ZM7.5 7H15.5V5H7.5V7ZM7.5 11H11.5V9H7.5V11ZM4.7 2H18.3V0H4.7V2ZM20.5 4.2V11.8H22.5V4.2H20.5ZM20.5 11.8C20.5 12.3766 20.4992 12.7488 20.4761 13.0322C20.4539 13.3038 20.4162 13.4045 20.391 13.454L22.173 14.362C22.3658 13.9836 22.4371 13.5904 22.4694 13.195C22.5008 12.8114 22.5 12.3436 22.5 11.8H20.5ZM18.3 16C18.8436 16 19.3114 16.0008 19.695 15.9694C20.0904 15.9371 20.4836 15.8658 20.862 15.673L19.954 13.891C19.9045 13.9162 19.8038 13.9539 19.5322 13.9761C19.2488 13.9992 18.8766 14 18.3 14V16ZM20.391 13.454C20.2951 13.6422 20.1422 13.7951 19.954 13.891L20.862 15.673C21.4265 15.3854 21.8854 14.9265 22.173 14.362L20.391 13.454ZM18.3 2C18.8766 2 19.2488 2.00078 19.5322 2.02393C19.8038 2.04612 19.9045 2.0838 19.954 2.10899L20.862 0.32698C20.4836 0.134186 20.0904 0.0628705 19.695 0.0305695C19.3114 -0.000777721 18.8436 0 18.3 0V2ZM22.5 4.2C22.5 3.65645 22.5008 3.18864 22.4694 2.80497C22.4371 2.40963 22.3658 2.01641 22.173 1.63803L20.391 2.54601C20.4162 2.59545 20.4539 2.69617 20.4761 2.96784C20.4992 3.25117 20.5 3.62345 20.5 4.2H22.5ZM19.954 2.10899C20.1422 2.20487 20.2951 2.35785 20.391 2.54601L22.173 1.63803C21.8854 1.07354 21.4265 0.614602 20.862 0.326981L19.954 2.10899ZM4.7 0C4.15645 0 3.68864 -0.000777721 3.30497 0.0305695C2.90963 0.0628705 2.51641 0.134187 2.13803 0.326981L3.04601 2.10899C3.09545 2.0838 3.19617 2.04612 3.46784 2.02393C3.75117 2.00078 4.12345 2 4.7 2V0ZM2.5 4.2C2.5 3.62345 2.50078 3.25117 2.52393 2.96784C2.54612 2.69617 2.5838 2.59545 2.60899 2.54601L0.826981 1.63803C0.634187 2.01641 0.562871 2.40963 0.530569 2.80497C0.499222 3.18864 0.5 3.65645 0.5 4.2H2.5ZM2.13803 0.326981C1.57354 0.614601 1.1146 1.07354 0.826981 1.63803L2.60899 2.54601C2.70487 2.35785 2.85785 2.20487 3.04601 2.10899L2.13803 0.326981ZM18.3 14H8.51639V16H18.3V14ZM3.28437 19.2028L7.24692 16.4032L6.09286 14.7698L2.13031 17.5694L3.28437 19.2028ZM0.5 17.7056C0.5 17.9004 0.499003 18.1154 0.515446 18.295C0.531758 18.4733 0.574803 18.7704 0.770816 19.0507L2.40973 17.9044C2.46386 17.9818 2.48927 18.0514 2.50042 18.0909C2.51028 18.1258 2.50955 18.1393 2.50712 18.1127C2.50477 18.0871 2.50251 18.0443 2.50126 17.9717C2.50003 17.8997 2.5 17.8153 2.5 17.7056H0.5ZM2.1566 17.5537C2.06941 17.5972 2.00231 17.6304 1.94576 17.657C1.88865 17.6839 1.85586 17.6977 1.83782 17.7045C1.81922 17.7115 1.83421 17.7042 1.87166 17.6975C1.91332 17.6902 1.98435 17.6832 2.07308 17.6964L1.78076 19.6749C2.10412 19.7226 2.37711 19.6385 2.54307 19.576C2.70801 19.5138 2.88921 19.4233 3.05009 19.343L2.1566 17.5537ZM0.770815 19.0507C1.00729 19.3888 1.3726 19.6146 1.78076 19.6749L2.07308 17.6964C2.20913 17.7165 2.3309 17.7917 2.40973 17.9044L0.770815 19.0507ZM2.5 17.7056V4.2H0.5V17.7056H2.5ZM2.13042 17.5693C2.12554 17.5727 2.12228 17.575 2.11951 17.577C2.11821 17.5779 2.11728 17.5786 2.1166 17.579C2.11593 17.5795 2.11564 17.5797 2.11565 17.5797C2.11584 17.5796 2.12182 17.5754 2.13068 17.5697L3.20899 19.2542C3.24215 19.2329 3.27291 19.2109 3.28426 19.2029L2.13042 17.5693ZM3.05008 19.343C3.06287 19.3366 3.09646 19.3201 3.13084 19.3009L2.15668 17.5542C2.16568 17.5492 2.1721 17.5459 2.1725 17.5457C2.17253 17.5457 2.17224 17.5458 2.17153 17.5462C2.17082 17.5465 2.16983 17.547 2.16844 17.5477C2.16547 17.5492 2.16191 17.551 2.15661 17.5536L3.05008 19.343ZM2.13054 17.5698C2.13917 17.5643 2.14785 17.5591 2.15674 17.5542L3.13077 19.301C3.1573 19.2862 3.18349 19.2705 3.20913 19.2541L2.13054 17.5698ZM8.51639 14C8.17508 14 7.87861 13.9961 7.5848 14.0509L7.95176 16.017C8.02177 16.0039 8.10276 16 8.51639 16V14ZM7.24692 16.4032C7.58474 16.1645 7.65314 16.121 7.71786 16.0913L6.88311 14.2738C6.6115 14.3985 6.37161 14.5728 6.09287 14.7698L7.24692 16.4032ZM7.5848 14.0509C7.34264 14.0961 7.10696 14.171 6.8831 14.2738L7.71786 16.0913C7.79248 16.057 7.87104 16.032 7.95176 16.017L7.5848 14.0509Z"
          fill="#6F6E6D"/>
</svg>
