<svg width="24" height="24" viewBox="0 0 24 24" fill="none" xmlns="http://www.w3.org/2000/svg">
    <path d="M18.5408 16.5747C18.7178 16.9297 18.8956 17.2415 19.0546 17.5H4.94539C5.10465 17.2411 5.28263 16.9289 5.45955 16.5738C5.9678 15.5537 6.50499 14.1042 6.50499 12.5V8.995C6.50499 5.96628 8.97127 3.5 12 3.5C15.0287 3.5 17.495 5.96628 17.495 8.995V12.5C17.495 14.1048 18.0325 15.5545 18.5408 16.5747ZM4.3898 18.3127C4.39196 18.3099 4.39432 18.307 4.39686 18.3037C4.39457 18.3067 4.39223 18.3097 4.38986 18.3127L4.3898 18.3127ZM19.6024 18.3028C19.6042 18.3052 19.606 18.3074 19.6076 18.3095L19.6076 18.3095C19.6058 18.3073 19.6041 18.3051 19.6024 18.3028Z"
          stroke="#FCC01C" stroke-width="2"/>
    <circle cx="17" cy="5" r="3" fill="#FCC01C"/>
</svg>