<svg width="20" height="21" viewBox="0 0 20 21" fill="none" xmlns="http://www.w3.org/2000/svg">
    <path d="M18.4596 20.3738C18.8501 20.7643 19.4833 20.7643 19.8738 20.3738C20.2643 19.9833 20.2643 19.3501 19.8738 18.9596L18.4596 20.3738ZM14.9314 8.88239C14.9314 12.4993 11.9993 15.4314 8.38239 15.4314V17.4314C13.1039 17.4314 16.9314 13.6039 16.9314 8.88239H14.9314ZM8.38239 15.4314C4.76547 15.4314 1.83337 12.4993 1.83337 8.88239H-0.166626C-0.166626 13.6039 3.6609 17.4314 8.38239 17.4314V15.4314ZM1.83337 8.88239C1.83337 5.26547 4.76547 2.33337 8.38239 2.33337V0.333374C3.6609 0.333374 -0.166626 4.1609 -0.166626 8.88239H1.83337ZM8.38239 2.33337C11.9993 2.33337 14.9314 5.26547 14.9314 8.88239H16.9314C16.9314 4.1609 13.1039 0.333374 8.38239 0.333374V2.33337ZM13.0674 14.9817L18.4596 20.3738L19.8738 18.9596L14.4817 13.5674L13.0674 14.9817Z"
          fill="#6F6E6D"/>
</svg>
