<svg width="18" height="18" viewBox="0 0 18 18" fill="none" xmlns="http://www.w3.org/2000/svg">
    <path d="M1 3H13M13 3C13 4.10457 13.8954 5 15 5C16.1046 5 17 4.10457 17 3C17 1.89543 16.1046 1 15 1C13.8954 1 13 1.89543 13 3ZM5 9H17M5 9C5 10.1046 4.10457 11 3 11C1.89543 11 1 10.1046 1 9C1 7.89543 1.89543 7 3 7C4.10457 7 5 7.89543 5 9ZM1 15H13M13 15C13 16.1046 13.8954 17 15 17C16.1046 17 17 16.1046 17 15C17 13.8954 16.1046 13 15 13C13.8954 13 13 13.8954 13 15Z"
          stroke="#020101" stroke-width="2" stroke-linecap="round"/>
</svg>
