<svg width="20" height="18" viewBox="0 0 20 18" fill="none" xmlns="http://www.w3.org/2000/svg">
    <path d="M9 11C11.7614 11 14 8.76142 14 6C14 3.23858 11.7614 1 9 1C6.23858 1 4 3.23858 4 6C4 8.76142 6.23858 11 9 11ZM9 11C4.58172 11 1 13.6863 1 17M12.8 17C11.8059 17 11 16.1365 11 15.0714C11 14.067 11.7166 13.242 12.6319 13.1512C12.8191 11.9309 13.8081 11 15 11C16.1919 11 17.1809 11.9309 17.3681 13.1512C18.2834 13.242 19 14.067 19 15.0714C19 16.1365 18.1941 17 17.2 17C15.4441 17 14.3373 17 12.8 17Z"
          stroke="#008C21" stroke-width="2" stroke-linecap="round"/>
</svg>
